<svg width="100%" height="100%" viewBox="0 0 600 630" xmlns="http://www.w3.org/2000/svg">
  <style>
    circle {
      fill-opacity: 0.4;}
    text {font-family: "DejaVu sans mono", monospace;}
    .circle-text {
        font-weight: bold;
        font-size: 17px;
        fill: #36454f;
    }
    .center-text{
      font-weight: bold;
        font-size: 17px;
        fill: #36454f;
    }
    .footer {font-weight:lighter; font-size: 8px;}
    .tag-text {font-size: 12px; fill: #fff;}
    </style>

    <circle id="circle_sr" cx="210" cy="210" r="180" fill="#8E4585" />
      <path id="path_sr" d="M 25 180 A 180 180 0 0 1 150 35" fill="none"></path>
      <text class="circle-text"><textPath href="#path_sr" startOffest="80">scientific reasoning</textPath></text>
    
      <rect width="150" height="24" x="95" y="100" rx="5" ry="5" fill="#8E4585"/>
      <text x="100" y="115" class="tag-text">statistical inference</text>

      <rect width="125" height="24" x="70" y="150" rx="5" ry="5" fill="#8E4585"/>
      <text x="75" y="165" class="tag-text">scientific method</text>

      <rect width="125" height="24" x="85" y="200" rx="5" ry="5" fill="#8E4585"/>
      <text x="90" y="215" class="tag-text">logical reasoning</text>

    <circle id="circle_cp" cx="420" cy="240" r="180" fill="#4A5D23" />
    <path id="path_cp" d="M 420 55 A 180 180 0 0 1 600 205" fill="none"></path>
    <text class="circle-text"><textPath href="#path_cp" startOffest="80">computer programming</textPath></text>

      <rect width="90" height="24" x="430" y="120" rx="5" ry="5" fill="#4A5D23"/>
      <text x="435" y="135" class="tag-text">data storage</text>
      
      <rect width="105" height="24" x="450" y="170" rx="5" ry="5" fill="#4A5D23"/>
      <text x="455" y="185" class="tag-text">data retrieval</text>

      <rect width="140" height="24" x="420" y="220" rx="5" ry="5" fill="#4A5D23"/>
      <text x="425" y="235" class="tag-text">data transformation</text>

      <rect width="80" height="24" x="460" y="275" rx="5" ry="5" fill="#4A5D23"/>
      <text x="465" y="290" class="tag-text">automation</text>

    <circle id="circle_dc" cx="295" cy="400" r="180" fill="#A0522D" />
    <path id="path_dc" d="M 300 595 A 180 180 0 0 0 460 500" fill="none"></path>
    <text class="circle-text"><textPath href="#path_dc" startOffest="80">data comprehension</textPath></text>

      <rect width="100" height="24" x="175" y="420" rx="5" ry="5" fill="#A0522D"/>
      <text x="180" y="435" class="tag-text">visualization</text>

      <rect width="155" height="24" x="245" y="460" rx="5" ry="5" fill="#A0522D"/>
      <text x="250" y="475" class="tag-text">descriptive statistics</text>

      <rect width="60" height="24" x="300" y="505" rx="5" ry="5" fill="#A0522D"/>
      <text x="305" y="520" class="tag-text">infoVis</text>


    <rect width="105" height="24" x="350" y="340" rx="5" ry="5" fill="#755728"/>
      <text x="355" y="355" class="tag-text">data wrangling</text>


    <rect width="45" height="24" x="175" y="320" rx="5" ry="5" fill="#974B59"/>
      <text x="180" y="335" class="tag-text">E D A</text>


    <rect width="65" height="24" x="285" y="135" rx="5" ry="5" fill="#6C5154"/>
      <text x="290" y="150" class="tag-text">modeling</text>

    <rect width="115" height="24" x="265" y="185" rx="5" ry="5" fill="#6C5154"/>
      <text x="270" y="200" class="tag-text">machine learning</text>

    <text x="310" y="280" text-anchor="middle" class="center-text">
      <tspan x="310" dy="0">DATA SCIENCE</tspan>
      <tspan x="310" dy="17">SKILL TAGS</tspan>
    </text>

    <text x="300" y="622" class="footer">Source: "Hands-On Programming with R" by Garrett Grolemund (2014)</text>

</svg>